<svg width="19" height="19" viewBox="0 0 19 19" fill="none" xmlns="http://www.w3.org/2000/svg">
<path d="M17.25 3.9V15.1C17.25 15.7365 17.0555 16.347 16.7093 16.7971C16.3631 17.2471 15.8935 17.5 15.4038 17.5H3.09615C2.60652 17.5 2.13695 17.2471 1.79073 16.7971C1.4445 16.347 1.25 15.7365 1.25 15.1V3.9M17.25 3.9C17.25 3.26348 17.0555 2.65303 16.7093 2.20294C16.3631 1.75286 15.8935 1.5 15.4038 1.5H3.09615C2.60652 1.5 2.13695 1.75286 1.79073 2.20294C1.4445 2.65303 1.25 3.26348 1.25 3.9M17.25 3.9V4.1592C17.25 4.56896 17.1694 4.9719 17.0157 5.32965C16.862 5.6874 16.6404 5.98804 16.3721 6.20293L10.2182 11.1256C9.92709 11.3587 9.5919 11.4821 9.25 11.4821C8.9081 11.4821 8.57291 11.3587 8.28179 11.1256L2.12795 6.204C1.85958 5.98911 1.638 5.68847 1.48431 5.33072C1.33063 4.97297 1.24997 4.57002 1.25 4.16027V3.9" stroke="#207BFF" stroke-width="2" stroke-linecap="round" stroke-linejoin="round"/>
</svg>
