<svg width="19" height="19" viewBox="0 0 19 19" fill="none" xmlns="http://www.w3.org/2000/svg">
<path d="M1.25 4.94231C1.25 11.7394 6.76056 17.25 13.5577 17.25H15.4038C15.8935 17.25 16.3631 17.0555 16.7093 16.7093C17.0555 16.3631 17.25 15.8935 17.25 15.4038V14.2781C17.25 13.8547 16.962 13.4855 16.5509 13.3829L12.9218 12.4754C12.5608 12.3852 12.1817 12.5206 11.9593 12.8176L11.1634 13.8785C10.9321 14.187 10.5325 14.3232 10.1706 14.1903C8.82734 13.6965 7.60746 12.9165 6.59546 11.9045C5.58347 10.8925 4.80354 9.67266 4.30969 8.32938C4.17677 7.96754 4.31297 7.56795 4.62149 7.33656L5.68241 6.54067C5.98026 6.31831 6.11482 5.93841 6.02456 5.57821L5.11708 1.94908C5.06714 1.74944 4.95192 1.57222 4.78974 1.44556C4.62755 1.3189 4.42768 1.25007 4.2219 1.25H3.09615C2.60652 1.25 2.13695 1.4445 1.79073 1.79073C1.4445 2.13695 1.25 2.60652 1.25 3.09615V4.94231Z" stroke="#207BFF" stroke-width="2" stroke-linecap="round" stroke-linejoin="round"/>
</svg>
      