<svg width="37" height="38" viewBox="0 0 37 38" fill="none" xmlns="http://www.w3.org/2000/svg">
<rect x="0.5" y="0.75" width="35.5" height="36.5005" rx="4.5" stroke="#9E9E9E"/>
<path d="M20.99 16.0005L20.644 25.0005M15.856 25.0005L15.51 16.0005M25.478 12.7905C25.82 12.8425 26.16 12.8975 26.5 12.9565M25.478 12.7905L24.41 26.6735C24.3664 27.2387 24.1111 27.7667 23.695 28.1518C23.279 28.5368 22.7329 28.7507 22.166 28.7505H14.334C13.7671 28.7507 13.221 28.5368 12.805 28.1518C12.3889 27.7667 12.1336 27.2387 12.09 26.6735L11.022 12.7905M25.478 12.7905C24.3239 12.616 23.1638 12.4836 22 12.3935M11.022 12.7905C10.68 12.8415 10.34 12.8965 10 12.9555M11.022 12.7905C12.1761 12.616 13.3362 12.4836 14.5 12.3935M22 12.3935V11.4775C22 10.2975 21.09 9.31352 19.91 9.27652C18.8036 9.24116 17.6964 9.24116 16.59 9.27652C15.41 9.31352 14.5 10.2985 14.5 11.4775V12.3935M22 12.3935C19.5037 12.2006 16.9963 12.2006 14.5 12.3935" stroke="#9E9E9E" stroke-width="1.5" stroke-linecap="round" stroke-linejoin="round"/>
</svg>
