<svg width="24" height="24" viewBox="0 0 24 24" fill="none" xmlns="http://www.w3.org/2000/svg">
<path d="M19.6036 18.5832C19.6058 18.5871 19.6069 18.5897 19.6074 18.5912C19.607 18.593 19.6059 18.5967 19.603 18.6022C19.5911 18.6246 19.558 18.6587 19.4985 18.6712C14.5526 19.7019 9.44733 19.7019 4.50145 18.6712C4.4419 18.6587 4.40887 18.6246 4.39699 18.6022C4.39409 18.5967 4.39296 18.593 4.39254 18.5912C4.39308 18.5897 4.39419 18.5871 4.39636 18.5832C4.93 17.6247 5.78379 16.76 6.90548 16.0905C8.35155 15.2275 10.1426 14.75 12 14.75C13.8574 14.75 15.6484 15.2275 17.0945 16.0906C18.2162 16.76 19.07 17.6247 19.6036 18.5832ZM19.6079 18.5929C19.6078 18.5928 19.6078 18.5926 19.6077 18.5921L19.6079 18.5929ZM4.39209 18.5929C4.39207 18.5929 4.3921 18.5926 4.39225 18.5921L4.39209 18.5929Z" stroke="black" strokeWidth="1.5" strokeLinecap="round"/>
<circle cx="12" cy="8" r="4.25" stroke="black" strokeWidth="1.5" strokeLinecap="round"/>
</svg>
