<svg width="385" height="245" viewBox="0 0 385 245" fill="none" xmlns="http://www.w3.org/2000/svg">
<g clip-path="url(#clip0_2831_1953)">
<path d="M139.023 80.5518H0V149.443H5.26618V167.462L17.2023 149.443H139.023V80.5518Z" fill="#F0F0F0"/>
<path d="M135.161 87.2607H3.86133V142.374H135.161V87.2607Z" fill="white"/>
<path d="M78.69 103.882H15.4727V106.778H78.69V103.882Z" fill="#F0F0F0"/>
<path d="M125.655 113.899H15.4727V116.795H125.655V113.899Z" fill="#F0F0F0"/>
<path d="M125.547 123.918H15.4727V126.814H125.547V123.918Z" fill="#F0F0F0"/>
<path d="M233.531 236.163C233.531 236.163 234.194 215.203 247.779 217.639L233.531 236.163Z" fill="#F0F0F0"/>
<path d="M229.694 216.217C233.449 216.217 236.493 211.622 236.493 205.954C236.493 200.286 233.449 195.69 229.694 195.69C225.939 195.69 222.895 200.286 222.895 205.954C222.895 211.622 225.939 216.217 229.694 216.217Z" fill="#F0F0F0"/>
<path d="M230.505 223.236H228.586V243.516H230.505V223.236Z" fill="#F0F0F0"/>
<path d="M297.214 204.076C327.56 204.076 352.161 166.942 352.161 121.135C352.161 75.3275 327.56 38.1934 297.214 38.1934C266.868 38.1934 242.268 75.3275 242.268 121.135C242.268 166.942 266.868 204.076 297.214 204.076Z" fill="#3F3D56"/>
<path d="M262.621 127.793C263.985 125.326 265.692 123.343 267.62 121.982C269.549 120.62 271.651 119.915 273.78 119.915C275.909 119.915 278.011 120.62 279.939 121.982C281.868 123.343 283.574 125.326 284.939 127.793C287.251 124.461 288.857 120.169 289.553 115.46C290.249 110.751 290.004 105.837 288.85 101.337C287.696 96.8383 285.683 92.9569 283.068 90.1841C280.452 87.4112 277.35 85.8714 274.155 85.7595C270.959 85.6476 267.814 86.9685 265.116 89.5552C262.418 92.1419 260.288 95.8782 258.997 100.292C257.705 104.705 257.31 109.598 257.861 114.35C258.411 119.103 259.883 123.502 262.09 126.992C262.263 127.265 262.44 127.532 262.621 127.793Z" fill="white"/>
<path d="M306.255 127.793C307.62 125.326 309.327 123.343 311.255 121.982C313.183 120.62 315.286 119.915 317.415 119.915C319.543 119.915 321.646 120.62 323.574 121.982C325.502 123.343 327.209 125.326 328.574 127.793C330.886 124.461 332.491 120.169 333.187 115.46C333.884 110.751 333.639 105.837 332.485 101.337C331.33 96.8383 329.318 92.9569 326.702 90.1841C324.087 87.4112 320.985 85.8714 317.79 85.7595C314.594 85.6476 311.448 86.9685 308.75 89.5552C306.052 92.1419 303.923 95.8782 302.632 100.292C301.34 104.705 300.945 109.598 301.496 114.35C302.046 119.103 303.518 123.502 305.725 126.992C305.898 127.265 306.075 127.532 306.255 127.793Z" fill="white"/>
<path d="M268.268 110.232C271.338 110.232 273.827 106.475 273.827 101.841C273.827 97.2062 271.338 93.4492 268.268 93.4492C265.198 93.4492 262.709 97.2062 262.709 101.841C262.709 106.475 265.198 110.232 268.268 110.232Z" fill="#3F3D56"/>
<path d="M311.899 110.232C314.969 110.232 317.458 106.475 317.458 101.841C317.458 97.2062 314.969 93.4492 311.899 93.4492C308.829 93.4492 306.34 97.2062 306.34 101.841C306.34 106.475 308.829 110.232 311.899 110.232Z" fill="#3F3D56"/>
<path d="M257.621 151.628C261.191 151.628 264.085 147.259 264.085 141.87C264.085 136.481 261.191 132.112 257.621 132.112C254.05 132.112 251.156 136.481 251.156 141.87C251.156 147.259 254.05 151.628 257.621 151.628Z" fill="#5F90E8"/>
<path d="M331.958 151.628C335.529 151.628 338.423 147.259 338.423 141.87C338.423 136.481 335.529 132.112 331.958 132.112C328.388 132.112 325.494 136.481 325.494 141.87C325.494 147.259 328.388 151.628 331.958 151.628Z" fill="#5F90E8"/>
<path d="M294.79 122.354L289.941 154.067L298.021 141.871L294.79 122.354Z" fill="#5F90E8"/>
<path d="M319.701 244.327L314.196 237.354L314.324 244.327H312.615L312.478 236.953L305.047 244.327H301.936L312.423 233.921L312.016 212.073L311.713 195.572L313.418 195.501L313.726 212.073L314.132 233.902L322.359 244.327H319.701Z" fill="#3F3D56"/>
<path d="M293.841 244.327L288.337 237.354L288.465 244.327H286.76L286.623 236.953L279.191 244.327H276.08L286.563 233.921L286.157 212.073L285.854 195.572L287.563 195.501L287.871 212.073L288.272 233.902L296.499 244.327H293.841Z" fill="#3F3D56"/>
<path d="M298.021 32.0947C296.513 32.0947 295.183 33.8625 294.294 36.5778C293.51 32.4948 291.864 29.6553 289.941 29.6553C289.81 29.6749 289.68 29.7078 289.552 29.7537C288.813 25.3943 287.095 22.3369 285.092 22.3369C282.415 22.3369 280.244 27.7979 280.244 34.5342C280.244 41.2705 282.415 46.7314 285.092 46.7314C285.223 46.7118 285.353 46.6789 285.48 46.633C286.22 50.9924 287.938 54.0498 289.941 54.0498C291.448 54.0498 292.778 52.282 293.667 49.5666C294.451 53.6497 296.098 56.4892 298.021 56.4892C300.699 56.4892 302.869 51.0282 302.869 44.2919C302.869 37.5556 300.699 32.0947 298.021 32.0947Z" fill="#3F3D56"/>
<path d="M245.407 123.715L215.139 116.305C213.614 115.931 212.061 115.557 210.531 115.882C209 116.207 207.469 117.344 206.689 119.358C206.314 120.325 206.132 121.436 206.165 122.556C206.198 123.676 206.445 124.757 206.876 125.67C207.307 126.584 207.903 127.29 208.593 127.704C209.283 128.118 210.038 128.222 210.766 128.004C209.114 127.923 207.377 127.869 205.911 129.022C204.445 130.175 203.407 132.975 204.122 135.225C204.336 135.846 204.626 136.4 204.977 136.858C206.08 138.351 207.441 139.342 208.902 139.716C210.363 140.09 211.864 139.832 213.232 138.972C212.117 141.384 209.906 141.742 207.994 142.301C206.081 142.859 203.87 144.492 203.799 147.431C203.719 150.733 206.322 152.488 208.465 153.16C219.91 156.715 231.788 155.253 242.7 148.948C243.926 148.311 245.087 147.417 246.148 146.291C247.337 144.928 248.241 143.076 248.751 140.958C249.261 138.84 249.356 136.544 249.025 134.347C248.693 132.149 247.949 130.142 246.881 128.567C245.813 126.991 244.468 125.913 243.005 125.462" fill="#3F3D56"/>
<path d="M376.056 161.166C371.06 145.223 363.148 131.77 353.251 122.394C352.177 121.297 351.006 120.435 349.772 119.831C348.336 119.216 346.812 119.238 345.384 119.896C343.956 120.554 342.683 121.818 341.719 123.539C340.755 125.26 340.139 127.364 339.947 129.599C339.754 131.834 339.992 134.106 340.632 136.142L338.264 134.292C343.019 147.95 347.775 161.607 352.531 175.264C353.249 177.329 353.985 179.428 355.076 181.078C356.168 182.729 357.691 183.894 359.226 183.625C359.835 183.522 360.419 183.199 360.929 182.685C361.438 182.17 361.859 181.479 362.155 180.668C362.451 179.857 362.614 178.951 362.63 178.026C362.646 177.101 362.514 176.183 362.247 175.351C362.914 176.771 363.792 177.936 364.81 178.754C366.302 179.831 368.408 179.4 369.17 177.186C369.37 176.554 369.489 175.871 369.521 175.172C369.648 172.944 369.355 170.706 368.675 168.719C367.995 166.732 366.956 165.076 365.679 163.943C367.626 163.838 369.144 166.29 370.589 168.262C372.035 170.234 374.228 171.92 375.827 170.24C377.623 168.352 376.988 164.156 376.056 161.166Z" fill="#3F3D56"/>
<path d="M24.8477 0H225.496V99.4294H217.896V125.433L200.669 99.4294H24.8477V0Z" fill="#CACACA"/>
<path d="M219.923 9.68262H30.4219V89.2261H219.923V9.68262Z" fill="white"/>
<path d="M136.9 32.9053H45.6602V37.0849H136.9V32.9053Z" fill="#5F90E8"/>
<path d="M204.684 47.3643H45.6602V51.5439H204.684V47.3643Z" fill="#5F90E8"/>
<path d="M204.528 61.8232H45.6602V66.0029H204.528V61.8232Z" fill="#5F90E8"/>
<path d="M384.555 245H214.764C214.646 245 214.532 244.929 214.449 244.803C214.365 244.677 214.318 244.505 214.318 244.327C214.318 244.149 214.365 243.977 214.449 243.851C214.532 243.725 214.646 243.654 214.764 243.654H384.555C384.673 243.654 384.786 243.725 384.87 243.851C384.953 243.977 385 244.149 385 244.327C385 244.505 384.953 244.677 384.87 244.803C384.786 244.929 384.673 245 384.555 245Z" fill="#CACACA"/>
</g>
<defs>
<clipPath id="clip0_2831_1953">
<rect width="385" height="245" fill="white"/>
</clipPath>
</defs>
</svg>
