<svg width="353" height="323" viewBox="0 0 353 323" fill="none" xmlns="http://www.w3.org/2000/svg">
<g clip-path="url(#clip0_2831_1904)">
<path d="M265.662 76.7569H264.2V28.1388C264.2 20.6759 261.759 13.5187 257.414 8.24168C253.069 2.96463 247.176 9.4167e-06 241.032 1.01158e-10H156.221C153.179 -9.90799e-06 150.166 0.727813 147.355 2.14191C144.544 3.55601 141.99 5.62869 139.839 8.24162C137.687 10.8545 135.981 13.9565 134.816 17.3705C133.652 20.7844 133.053 24.4435 133.053 28.1387V294.861C133.053 298.556 133.652 302.216 134.816 305.629C135.981 309.043 137.687 312.145 139.839 314.758C141.99 317.371 144.544 319.444 147.355 320.858C150.166 322.272 153.179 323 156.221 323H241.032C247.176 323 253.069 320.035 257.414 314.758C261.759 309.481 264.2 302.324 264.2 294.861V111.364H265.662L265.662 76.7569Z" fill="#3F3D56"/>
<path d="M241.968 7.32031H230.898C231.407 8.83623 231.601 10.4809 231.463 12.1096C231.326 13.7382 230.861 15.3007 230.109 16.6596C229.357 18.0184 228.341 19.1318 227.152 19.9017C225.962 20.6716 224.635 21.0743 223.287 21.0744H174.7C173.352 21.0743 172.025 20.6716 170.835 19.9017C169.645 19.1318 168.63 18.0184 167.878 16.6596C167.126 15.3008 166.661 13.7382 166.523 12.1096C166.386 10.481 166.58 8.83623 167.089 7.32031H156.749C152.161 7.32031 147.76 9.53425 144.515 13.4751C141.27 17.4159 139.447 22.7608 139.447 28.334V294.665C139.447 297.425 139.895 300.157 140.764 302.707C141.634 305.256 142.908 307.573 144.515 309.524C146.122 311.475 148.029 313.023 150.128 314.079C152.227 315.135 154.477 315.679 156.749 315.679H241.968C244.24 315.679 246.49 315.135 248.589 314.079C250.688 313.023 252.596 311.475 254.202 309.524C255.809 307.573 257.084 305.256 257.953 302.707C258.823 300.157 259.27 297.425 259.27 294.665V28.334C259.27 25.5745 258.823 22.8419 257.953 20.2924C257.084 17.7429 255.809 15.4264 254.202 13.4751C252.596 11.5238 250.688 9.97591 248.589 8.91988C246.49 7.86384 244.24 7.32031 241.968 7.32031Z" fill="white"/>
<path d="M217.01 122.807C225.486 122.807 232.358 122.013 232.358 121.032C232.358 120.052 225.486 119.257 217.01 119.257C208.534 119.257 201.662 120.052 201.662 121.032C201.662 122.013 208.534 122.807 217.01 122.807Z" fill="#E6E6E6"/>
<path d="M352.999 44.3232H211.707V100.657H217.059V115.391L229.19 100.657H352.999V44.3232Z" fill="#1B60E4"/>
<path d="M291.683 63.4004H227.434V65.7685H291.683V63.4004Z" fill="white"/>
<path d="M339.415 71.5918H227.434V73.9599H339.415V71.5918Z" fill="white"/>
<path d="M339.305 79.7842H227.434V82.1523H339.305V79.7842Z" fill="white"/>
<path d="M316.904 214.234H204.119V259.202H208.391V270.963L218.075 259.202H316.904V214.234Z" fill="#1B60E4"/>
<path d="M267.958 229.462H216.672V231.352H267.958V229.462Z" fill="white"/>
<path d="M306.059 236.001H216.672V237.891H306.059V236.001Z" fill="white"/>
<path d="M305.972 242.54H216.672V244.43H305.972V242.54Z" fill="white"/>
<path d="M208.353 276.883C215.119 276.883 220.604 276.249 220.604 275.466C220.604 274.683 215.119 274.049 208.353 274.049C201.587 274.049 196.102 274.683 196.102 275.466C196.102 276.249 201.587 276.883 208.353 276.883Z" fill="#E6E6E6"/>
<path d="M174.621 188.493C183.098 188.493 189.969 187.698 189.969 186.718C189.969 185.737 183.098 184.942 174.621 184.942C166.145 184.942 159.273 185.737 159.273 186.718C159.273 187.698 166.145 188.493 174.621 188.493Z" fill="#E6E6E6"/>
<path d="M80.5527 132.654H179.914V172.271H176.15V182.632L167.62 172.271H80.5527V132.654Z" fill="#1B60E4"/>
<path d="M136.042 145.765H90.8594V147.43H136.042V145.765Z" fill="white"/>
<path d="M169.608 151.526H90.8594V153.192H169.608V151.526Z" fill="white"/>
<path d="M169.531 157.287H90.8594V158.952H169.531V157.287Z" fill="white"/>
<path d="M32.1517 229.288C32.6282 230.285 33.411 231.01 34.3279 231.306C35.2449 231.601 36.2209 231.442 37.0413 230.863C37.8617 230.285 38.4592 229.334 38.7024 228.22C38.9456 227.107 38.8145 225.921 38.3381 224.925C38.2381 224.721 38.1255 224.527 38.0012 224.344L41.0103 198.297L41.1004 197.517L41.7116 192.202L41.8017 191.436L41.4686 191.455L35.6388 191.778L34.0755 191.864L33.8796 196.713L32.7708 223.973C32.1915 224.646 31.8155 225.537 31.7032 226.501C31.5909 227.465 31.7489 228.447 32.1517 229.288Z" fill="#A0616A"/>
<path d="M41.0837 197.755L33.681 196.93C33.2971 196.886 32.943 196.659 32.6961 196.299C32.4492 195.939 32.3295 195.475 32.3629 195.009L33.736 176.312C33.8026 175.404 34.0184 174.521 34.3708 173.716C34.7232 172.911 35.2049 172.2 35.7876 171.626C36.3702 171.051 37.0418 170.624 37.7628 170.37C38.4837 170.116 39.2392 170.04 39.9847 170.147C40.7302 170.253 41.4505 170.541 42.1029 170.992C42.7553 171.443 43.3266 172.048 43.783 172.772C44.2394 173.496 44.5716 174.323 44.76 175.206C44.9483 176.088 44.989 177.008 44.8797 177.91L42.66 196.249C42.609 196.669 42.4354 197.053 42.1709 197.331C41.9064 197.608 41.5685 197.761 41.2188 197.762C41.1741 197.762 41.129 197.76 41.0837 197.755Z" fill="#FFFBFB"/>
<path d="M33.7678 183.405C33.019 180.829 32.9843 178.026 33.6689 175.424C34.3535 172.822 35.7199 170.564 37.5597 168.993C40.3512 166.673 44.1712 165.84 48.285 171.788C56.5126 183.684 58.6674 196.77 58.6674 196.77L41.8204 200.1C41.8204 200.1 36.0906 191.595 33.7678 183.405Z" fill="#AC2424"/>
<path d="M62.7195 316.647H67.5226L69.8076 294.146L62.7188 294.146L62.7195 316.647Z" fill="#A0616A"/>
<path d="M76.7871 322.063L61.6912 322.064L61.6909 314.981L72.1287 314.98C72.7404 314.98 73.3462 315.126 73.9113 315.411C74.4765 315.695 74.99 316.112 75.4226 316.637C75.8551 317.162 76.1983 317.786 76.4324 318.472C76.6665 319.159 76.787 319.894 76.7871 320.637L76.7871 322.063Z" fill="#2F2E41"/>
<path d="M23.2305 311.56L27.791 313.391L35.7755 292.897L29.0447 290.195L23.2305 311.56Z" fill="#A0616A"/>
<path d="M35.1855 322.064L20.8522 316.311L22.6827 309.585L32.5932 313.563C33.174 313.796 33.7113 314.166 34.1744 314.651C34.6376 315.137 35.0174 315.728 35.2924 316.392C35.5673 317.056 35.732 317.778 35.7769 318.519C35.8218 319.26 35.7461 320.005 35.5541 320.71L35.1855 322.064Z" fill="#2F2E41"/>
<path d="M50.6631 160.905C55.3264 157.809 57.0402 150.708 54.491 145.044C51.9419 139.381 46.0951 137.299 41.4318 140.395C36.7686 143.491 35.0548 150.592 37.6039 156.256C40.1531 161.919 45.9999 164.001 50.6631 160.905Z" fill="#A0616A"/>
<path d="M54.4727 310.383L50.0119 274.626C49.9644 274.244 49.8091 273.895 49.5727 273.637C49.3363 273.379 49.0335 273.228 48.716 273.212C48.3985 273.195 48.086 273.312 47.832 273.544C47.578 273.776 47.3982 274.108 47.3234 274.483L40.5306 308.559C40.4236 309.081 40.1598 309.536 39.791 309.834C39.4222 310.132 38.975 310.252 38.5372 310.17L19.7999 306.512C19.5514 306.464 19.3144 306.351 19.1047 306.182C18.8951 306.013 18.7176 305.792 18.5843 305.533C18.4509 305.274 18.3648 304.983 18.3317 304.68C18.2986 304.377 18.3193 304.069 18.3924 303.776L42.8247 205.946C42.8942 205.668 42.9024 205.372 42.8486 205.089L42.0351 200.808C41.9458 200.343 41.987 199.856 42.1522 199.424C42.3174 198.992 42.5971 198.639 42.9467 198.422C46.2737 196.36 54.6985 192.074 61.0596 196.769C61.2661 196.922 61.4448 197.124 61.5848 197.364C61.7249 197.603 61.8233 197.875 61.8743 198.162L80.9608 307.112C81.0127 307.408 81.0123 307.715 80.9595 308.011C80.9068 308.307 80.8029 308.586 80.6548 308.83C80.5067 309.073 80.3177 309.276 80.1003 309.425C79.8829 309.573 79.642 309.664 79.3936 309.691L56.3732 312.195C56.3201 312.2 56.2674 312.203 56.2152 312.203C55.7937 312.202 55.3864 312.018 55.0668 311.684C54.7473 311.35 54.5365 310.889 54.4727 310.383Z" fill="#2F2E41"/>
<path d="M39.6672 142.392C40.3926 141.863 41.0364 141.183 41.5695 140.385C41.8324 139.981 42.0055 139.502 42.072 138.994C42.1385 138.486 42.0963 137.966 41.9494 137.483C41.4632 136.181 40.0185 135.768 38.8991 136.212C37.7797 136.656 36.9149 137.721 36.0967 138.75C35.3761 139.656 34.6349 140.602 34.293 141.791C33.9512 142.981 34.1268 144.489 34.977 145.21C35.8114 145.918 37.0111 145.628 37.8136 144.868C38.6161 144.107 39.1129 142.979 39.5866 141.884L39.6672 142.392Z" fill="#2F2E41"/>
<path d="M36.4077 139.063C36.3543 135.77 33.2638 133.409 30.5948 133.992C27.9258 134.576 25.8742 137.34 24.8472 140.388C22.6775 146.829 24.3063 154.177 26.397 160.657C28.4876 167.136 31.0748 173.713 30.7699 180.662C30.5637 184.418 29.5261 188.037 27.7666 191.137C26.007 194.236 23.5909 196.701 20.7734 198.27C23.7857 199.929 27.3862 198.215 29.9174 195.63C35.5388 189.889 37.7086 179.668 35.0737 171.341C33.7741 167.235 31.4837 163.721 29.6956 159.895C27.9075 156.068 26.5956 151.559 27.5188 147.304C28.4419 143.05 32.3707 139.604 35.7296 141.252L36.4077 139.063Z" fill="#2F2E41"/>
<path d="M46.6243 155.836C45.7855 154.114 44.9386 151.854 46.4723 150.349C46.8057 150.037 47.1872 149.809 47.5943 149.678C48.0013 149.547 48.4258 149.517 48.8428 149.588C50.5715 149.841 52.454 149.945 54.1271 149.183C54.7546 148.92 55.3323 148.508 55.826 147.969C56.3196 147.43 56.7191 146.777 57.0007 146.047C57.8645 143.561 56.7828 140.54 54.977 138.969C53.8723 138.043 52.5669 137.533 51.2246 137.504C49.8824 137.475 48.563 137.929 47.432 138.807C45.0931 137.552 42.2552 138.11 40.1303 139.837C38.0055 141.565 36.5515 144.331 35.7616 147.284C35.034 149.826 34.9087 152.565 35.4 155.19C35.7954 157.016 36.5472 158.699 37.5918 160.097C38.6364 161.495 39.943 162.567 41.401 163.221C41.969 163.493 42.5858 163.579 43.1897 163.47C43.7936 163.361 44.3633 163.062 44.8418 162.601C44.8418 162.601 46.1681 161.195 46.5831 159.502C46.9018 158.201 47.0724 156.756 46.6243 155.836Z" fill="#2F2E41"/>
<path d="M75.1709 166.264C75.1228 166.521 75.0915 166.782 75.0772 167.045L58.2468 178.837L54.156 175.977L49.7949 182.911L56.6318 188.829C57.1841 189.307 57.8492 189.555 58.5273 189.535C59.2054 189.515 59.8598 189.228 60.3923 188.718L77.7472 172.089C78.5304 172.441 79.3834 172.496 80.1926 172.245C81.0017 171.994 81.7288 171.449 82.2771 170.684C82.8254 169.919 83.1689 168.969 83.262 167.961C83.355 166.953 83.1931 165.935 82.7979 165.041C82.4027 164.148 81.7929 163.422 81.0495 162.959C80.3062 162.497 79.4645 162.32 78.6365 162.453C77.8086 162.586 77.0335 163.022 76.4144 163.703C75.7954 164.383 75.3616 165.277 75.1709 166.264Z" fill="#A0616A"/>
<path d="M57.6841 179.395L52.2446 187.957C52.0898 188.201 51.8936 188.401 51.6694 188.544C51.4452 188.687 51.1982 188.77 50.9452 188.787C50.6922 188.804 50.4392 188.754 50.2034 188.642C49.9677 188.529 49.7547 188.356 49.5789 188.134L43.421 180.368C42.399 179.399 41.7351 177.978 41.5747 176.416C41.4144 174.853 41.7708 173.277 42.5657 172.034C43.3606 170.79 44.5292 169.98 45.8153 169.781C47.1013 169.582 48.3997 170.011 49.4258 170.973L57.1492 176.218C57.3703 176.368 57.5621 176.575 57.7116 176.823C57.8611 177.072 57.9648 177.356 58.0155 177.658C58.0663 177.959 58.063 178.27 58.0058 178.57C57.9486 178.87 57.8389 179.151 57.6841 179.395Z" fill="#F5F5F5"/>
<path d="M113.016 323H0.457556C0.336205 323 0.219823 322.942 0.134015 322.837C0.0482066 322.733 0 322.592 0 322.444C0 322.297 0.0482066 322.156 0.134015 322.051C0.219823 321.947 0.336205 321.889 0.457556 321.889H113.016C113.137 321.889 113.254 321.947 113.34 322.051C113.425 322.156 113.474 322.297 113.474 322.444C113.474 322.592 113.425 322.733 113.34 322.837C113.254 322.942 113.137 323 113.016 323Z" fill="#CCCCCC"/>
</g>
<defs>
<clipPath id="clip0_2831_1904">
<rect width="353" height="323" fill="white"/>
</clipPath>
</defs>
</svg>
